<mxfile host="app.diagrams.net" modified="2024-07-08T19:22:53.294Z" agent="Mozilla/5.0 (Macintosh; Intel Mac OS X 10_15_7) AppleWebKit/537.36 (KHTML, like Gecko) Chrome/126.0.0.0 Safari/537.36" etag="6EjINS1Fx-W96WvEqe09" version="24.6.4" type="github">
  <diagram id="C5RBs43oDa-KdzZeNtuy" name="Page-1">
    <mxGraphModel dx="954" dy="640" grid="1" gridSize="10" guides="1" tooltips="1" connect="1" arrows="1" fold="1" page="1" pageScale="1" pageWidth="827" pageHeight="1169" math="0" shadow="0">
      <root>
        <mxCell id="WIyWlLk6GJQsqaUBKTNV-0" />
        <mxCell id="WIyWlLk6GJQsqaUBKTNV-1" parent="WIyWlLk6GJQsqaUBKTNV-0" />
        <mxCell id="zqfl4lm8Wyu1sKmnVki_-4" value="" style="edgeStyle=orthogonalEdgeStyle;rounded=0;orthogonalLoop=1;jettySize=auto;html=1;" edge="1" parent="WIyWlLk6GJQsqaUBKTNV-1" source="zqfl4lm8Wyu1sKmnVki_-0" target="zqfl4lm8Wyu1sKmnVki_-3">
          <mxGeometry relative="1" as="geometry" />
        </mxCell>
        <mxCell id="zqfl4lm8Wyu1sKmnVki_-0" value="Start" style="ellipse;whiteSpace=wrap;html=1;" vertex="1" parent="WIyWlLk6GJQsqaUBKTNV-1">
          <mxGeometry x="160" y="50" width="120" height="80" as="geometry" />
        </mxCell>
        <mxCell id="zqfl4lm8Wyu1sKmnVki_-7" value="" style="edgeStyle=orthogonalEdgeStyle;rounded=0;orthogonalLoop=1;jettySize=auto;html=1;" edge="1" parent="WIyWlLk6GJQsqaUBKTNV-1" source="zqfl4lm8Wyu1sKmnVki_-3" target="zqfl4lm8Wyu1sKmnVki_-6">
          <mxGeometry relative="1" as="geometry" />
        </mxCell>
        <mxCell id="zqfl4lm8Wyu1sKmnVki_-3" value="Masukkan email dan password" style="shape=parallelogram;perimeter=parallelogramPerimeter;whiteSpace=wrap;html=1;fixedSize=1;" vertex="1" parent="WIyWlLk6GJQsqaUBKTNV-1">
          <mxGeometry x="105" y="170" width="230" height="60" as="geometry" />
        </mxCell>
        <mxCell id="zqfl4lm8Wyu1sKmnVki_-17" value="" style="edgeStyle=orthogonalEdgeStyle;rounded=0;orthogonalLoop=1;jettySize=auto;html=1;" edge="1" parent="WIyWlLk6GJQsqaUBKTNV-1" source="zqfl4lm8Wyu1sKmnVki_-6" target="zqfl4lm8Wyu1sKmnVki_-16">
          <mxGeometry relative="1" as="geometry" />
        </mxCell>
        <mxCell id="zqfl4lm8Wyu1sKmnVki_-18" value="Yes" style="edgeLabel;html=1;align=center;verticalAlign=middle;resizable=0;points=[];" vertex="1" connectable="0" parent="zqfl4lm8Wyu1sKmnVki_-17">
          <mxGeometry x="-0.06" y="1" relative="1" as="geometry">
            <mxPoint as="offset" />
          </mxGeometry>
        </mxCell>
        <mxCell id="zqfl4lm8Wyu1sKmnVki_-25" value="" style="edgeStyle=orthogonalEdgeStyle;rounded=0;orthogonalLoop=1;jettySize=auto;html=1;" edge="1" parent="WIyWlLk6GJQsqaUBKTNV-1" source="zqfl4lm8Wyu1sKmnVki_-6" target="zqfl4lm8Wyu1sKmnVki_-19">
          <mxGeometry relative="1" as="geometry" />
        </mxCell>
        <mxCell id="zqfl4lm8Wyu1sKmnVki_-26" value="No" style="edgeLabel;html=1;align=center;verticalAlign=middle;resizable=0;points=[];" vertex="1" connectable="0" parent="zqfl4lm8Wyu1sKmnVki_-25">
          <mxGeometry x="-0.0783" relative="1" as="geometry">
            <mxPoint as="offset" />
          </mxGeometry>
        </mxCell>
        <mxCell id="zqfl4lm8Wyu1sKmnVki_-6" value="Apakah email dan password valid?&amp;nbsp;" style="rhombus;whiteSpace=wrap;html=1;" vertex="1" parent="WIyWlLk6GJQsqaUBKTNV-1">
          <mxGeometry x="105" y="270" width="230" height="100" as="geometry" />
        </mxCell>
        <mxCell id="zqfl4lm8Wyu1sKmnVki_-23" value="" style="edgeStyle=orthogonalEdgeStyle;rounded=0;orthogonalLoop=1;jettySize=auto;html=1;" edge="1" parent="WIyWlLk6GJQsqaUBKTNV-1" source="zqfl4lm8Wyu1sKmnVki_-16" target="zqfl4lm8Wyu1sKmnVki_-21">
          <mxGeometry relative="1" as="geometry" />
        </mxCell>
        <mxCell id="zqfl4lm8Wyu1sKmnVki_-16" value="Akses Diberikan" style="whiteSpace=wrap;html=1;" vertex="1" parent="WIyWlLk6GJQsqaUBKTNV-1">
          <mxGeometry x="105" y="470" width="230" height="60" as="geometry" />
        </mxCell>
        <mxCell id="zqfl4lm8Wyu1sKmnVki_-30" style="edgeStyle=orthogonalEdgeStyle;rounded=0;orthogonalLoop=1;jettySize=auto;html=1;entryX=1;entryY=0.5;entryDx=0;entryDy=0;" edge="1" parent="WIyWlLk6GJQsqaUBKTNV-1" source="zqfl4lm8Wyu1sKmnVki_-19" target="zqfl4lm8Wyu1sKmnVki_-22">
          <mxGeometry relative="1" as="geometry">
            <Array as="points">
              <mxPoint x="570" y="790" />
            </Array>
          </mxGeometry>
        </mxCell>
        <mxCell id="zqfl4lm8Wyu1sKmnVki_-19" value="Tampilkan pesan error" style="whiteSpace=wrap;html=1;" vertex="1" parent="WIyWlLk6GJQsqaUBKTNV-1">
          <mxGeometry x="450" y="290" width="230" height="60" as="geometry" />
        </mxCell>
        <mxCell id="zqfl4lm8Wyu1sKmnVki_-24" value="" style="edgeStyle=orthogonalEdgeStyle;rounded=0;orthogonalLoop=1;jettySize=auto;html=1;" edge="1" parent="WIyWlLk6GJQsqaUBKTNV-1" source="zqfl4lm8Wyu1sKmnVki_-21" target="zqfl4lm8Wyu1sKmnVki_-22">
          <mxGeometry relative="1" as="geometry" />
        </mxCell>
        <mxCell id="zqfl4lm8Wyu1sKmnVki_-21" value="Tampilkan halaman utama" style="whiteSpace=wrap;html=1;" vertex="1" parent="WIyWlLk6GJQsqaUBKTNV-1">
          <mxGeometry x="105" y="600" width="230" height="60" as="geometry" />
        </mxCell>
        <mxCell id="zqfl4lm8Wyu1sKmnVki_-22" value="End" style="ellipse;whiteSpace=wrap;html=1;" vertex="1" parent="WIyWlLk6GJQsqaUBKTNV-1">
          <mxGeometry x="160" y="750" width="120" height="80" as="geometry" />
        </mxCell>
      </root>
    </mxGraphModel>
  </diagram>
</mxfile>
